<mxfile host="app.diagrams.net" modified="2021-03-26T14:56:46.064Z" agent="5.0 (Windows NT 10.0; WOW64) AppleWebKit/537.36 (KHTML, like Gecko) Chrome/75.0.3770.100 Safari/537.36" etag="YiPYNPDCGlQck45MebLy" version="14.5.1" type="github">
  <diagram id="eBwaekxbl069Q2oMZIKk" name="第 1 页">
    <mxGraphModel dx="5088" dy="2852" grid="1" gridSize="10" guides="1" tooltips="1" connect="1" arrows="1" fold="1" page="1" pageScale="1" pageWidth="827" pageHeight="1169" math="0" shadow="0">
      <root>
        <mxCell id="0" />
        <mxCell id="1" parent="0" />
        <mxCell id="nVnGu1UQP7cNqkmfe-Jb-1" value="" style="whiteSpace=wrap;html=1;aspect=fixed;fillColor=#d5e8d4;strokeColor=#82b366;" vertex="1" parent="1">
          <mxGeometry x="-1410" y="200" width="650" height="650" as="geometry" />
        </mxCell>
        <mxCell id="nVnGu1UQP7cNqkmfe-Jb-6" value="&lt;font style=&quot;font-size: 44px&quot;&gt;前期-小程序&lt;/font&gt;" style="rounded=0;whiteSpace=wrap;html=1;fillColor=#d5e8d4;strokeColor=#82b366;" vertex="1" parent="1">
          <mxGeometry x="-1770" y="440" width="290" height="120" as="geometry" />
        </mxCell>
        <mxCell id="nVnGu1UQP7cNqkmfe-Jb-41" style="edgeStyle=orthogonalEdgeStyle;rounded=0;orthogonalLoop=1;jettySize=auto;html=1;entryX=0;entryY=0.5;entryDx=0;entryDy=0;fontSize=54;" edge="1" parent="1" source="nVnGu1UQP7cNqkmfe-Jb-7" target="nVnGu1UQP7cNqkmfe-Jb-20">
          <mxGeometry relative="1" as="geometry" />
        </mxCell>
        <mxCell id="nVnGu1UQP7cNqkmfe-Jb-42" style="edgeStyle=orthogonalEdgeStyle;rounded=0;orthogonalLoop=1;jettySize=auto;html=1;entryX=0;entryY=0.75;entryDx=0;entryDy=0;fontSize=54;" edge="1" parent="1" source="nVnGu1UQP7cNqkmfe-Jb-7" target="nVnGu1UQP7cNqkmfe-Jb-21">
          <mxGeometry relative="1" as="geometry" />
        </mxCell>
        <mxCell id="nVnGu1UQP7cNqkmfe-Jb-7" value="模块1——笔记" style="rounded=0;whiteSpace=wrap;html=1;fillColor=#fff2cc;strokeColor=#d6b656;fontSize=40;" vertex="1" parent="1">
          <mxGeometry x="450" y="80" width="330" height="120" as="geometry" />
        </mxCell>
        <mxCell id="nVnGu1UQP7cNqkmfe-Jb-11" value="" style="rounded=0;whiteSpace=wrap;html=1;fillColor=#d5e8d4;strokeColor=#82b366;" vertex="1" parent="1">
          <mxGeometry x="872" y="-470" width="240" height="120" as="geometry" />
        </mxCell>
        <mxCell id="nVnGu1UQP7cNqkmfe-Jb-17" style="edgeStyle=orthogonalEdgeStyle;rounded=0;orthogonalLoop=1;jettySize=auto;html=1;entryX=0;entryY=0.5;entryDx=0;entryDy=0;fontSize=40;" edge="1" parent="1" source="nVnGu1UQP7cNqkmfe-Jb-12" target="nVnGu1UQP7cNqkmfe-Jb-7">
          <mxGeometry relative="1" as="geometry" />
        </mxCell>
        <mxCell id="nVnGu1UQP7cNqkmfe-Jb-18" style="edgeStyle=orthogonalEdgeStyle;rounded=0;orthogonalLoop=1;jettySize=auto;html=1;entryX=0;entryY=0.5;entryDx=0;entryDy=0;fontSize=40;" edge="1" parent="1" source="nVnGu1UQP7cNqkmfe-Jb-12" target="nVnGu1UQP7cNqkmfe-Jb-16">
          <mxGeometry relative="1" as="geometry" />
        </mxCell>
        <mxCell id="nVnGu1UQP7cNqkmfe-Jb-12" value="&lt;font style=&quot;font-size: 44px&quot;&gt;中期平台——网站&lt;/font&gt;" style="rounded=0;whiteSpace=wrap;html=1;fillColor=#fff2cc;strokeColor=#d6b656;" vertex="1" parent="1">
          <mxGeometry x="-260" y="430" width="560" height="120" as="geometry" />
        </mxCell>
        <mxCell id="nVnGu1UQP7cNqkmfe-Jb-39" style="edgeStyle=orthogonalEdgeStyle;rounded=0;orthogonalLoop=1;jettySize=auto;html=1;entryX=0;entryY=0.5;entryDx=0;entryDy=0;fontSize=54;" edge="1" parent="1" source="nVnGu1UQP7cNqkmfe-Jb-16" target="nVnGu1UQP7cNqkmfe-Jb-29">
          <mxGeometry relative="1" as="geometry" />
        </mxCell>
        <mxCell id="nVnGu1UQP7cNqkmfe-Jb-40" style="edgeStyle=orthogonalEdgeStyle;rounded=0;orthogonalLoop=1;jettySize=auto;html=1;entryX=0;entryY=0.5;entryDx=0;entryDy=0;fontSize=54;" edge="1" parent="1" source="nVnGu1UQP7cNqkmfe-Jb-16" target="nVnGu1UQP7cNqkmfe-Jb-30">
          <mxGeometry relative="1" as="geometry" />
        </mxCell>
        <mxCell id="nVnGu1UQP7cNqkmfe-Jb-16" value="模块2——兴趣课程" style="rounded=0;whiteSpace=wrap;html=1;fillColor=#fff2cc;strokeColor=#d6b656;fontSize=40;" vertex="1" parent="1">
          <mxGeometry x="460" y="690" width="490" height="120" as="geometry" />
        </mxCell>
        <mxCell id="nVnGu1UQP7cNqkmfe-Jb-26" style="edgeStyle=orthogonalEdgeStyle;rounded=0;orthogonalLoop=1;jettySize=auto;html=1;entryX=0;entryY=0.5;entryDx=0;entryDy=0;fontSize=54;" edge="1" parent="1" source="nVnGu1UQP7cNqkmfe-Jb-20" target="nVnGu1UQP7cNqkmfe-Jb-23">
          <mxGeometry relative="1" as="geometry" />
        </mxCell>
        <mxCell id="nVnGu1UQP7cNqkmfe-Jb-20" value="保留小程序的功能" style="rounded=0;whiteSpace=wrap;html=1;fillColor=#fff2cc;strokeColor=#d6b656;fontSize=40;" vertex="1" parent="1">
          <mxGeometry x="827" y="-230" width="330" height="210" as="geometry" />
        </mxCell>
        <mxCell id="nVnGu1UQP7cNqkmfe-Jb-43" style="edgeStyle=orthogonalEdgeStyle;rounded=0;orthogonalLoop=1;jettySize=auto;html=1;entryX=0;entryY=0.75;entryDx=0;entryDy=0;fontSize=54;" edge="1" parent="1" source="nVnGu1UQP7cNqkmfe-Jb-21" target="nVnGu1UQP7cNqkmfe-Jb-27">
          <mxGeometry relative="1" as="geometry" />
        </mxCell>
        <mxCell id="nVnGu1UQP7cNqkmfe-Jb-44" style="edgeStyle=orthogonalEdgeStyle;rounded=0;orthogonalLoop=1;jettySize=auto;html=1;entryX=0;entryY=0.5;entryDx=0;entryDy=0;fontSize=54;" edge="1" parent="1" source="nVnGu1UQP7cNqkmfe-Jb-21" target="nVnGu1UQP7cNqkmfe-Jb-28">
          <mxGeometry relative="1" as="geometry" />
        </mxCell>
        <mxCell id="nVnGu1UQP7cNqkmfe-Jb-21" value="&amp;nbsp;more" style="rounded=0;whiteSpace=wrap;html=1;fillColor=#fff2cc;strokeColor=#d6b656;fontSize=40;" vertex="1" parent="1">
          <mxGeometry x="855" y="270" width="220" height="80" as="geometry" />
        </mxCell>
        <mxCell id="nVnGu1UQP7cNqkmfe-Jb-23" value="类似学习通，可先选择高校，然后上传分享笔记blabla(与小程序无差别)" style="rounded=0;whiteSpace=wrap;html=1;fillColor=#fff2cc;strokeColor=#d6b656;fontSize=40;" vertex="1" parent="1">
          <mxGeometry x="1290" y="-245" width="500" height="240" as="geometry" />
        </mxCell>
        <mxCell id="nVnGu1UQP7cNqkmfe-Jb-24" value="功能" style="text;html=1;strokeColor=none;fillColor=none;align=center;verticalAlign=middle;whiteSpace=wrap;rounded=0;fontSize=54;" vertex="1" parent="1">
          <mxGeometry x="902" y="-410" width="180" height="20" as="geometry" />
        </mxCell>
        <mxCell id="nVnGu1UQP7cNqkmfe-Jb-27" value="共享范围扩大，从校内共享到高校之间互相共享" style="rounded=0;whiteSpace=wrap;html=1;fillColor=#fff2cc;strokeColor=#d6b656;fontSize=40;" vertex="1" parent="1">
          <mxGeometry x="1290" y="120" width="510" height="140" as="geometry" />
        </mxCell>
        <mxCell id="nVnGu1UQP7cNqkmfe-Jb-28" value="按专业or学科or课程分建社区，不同高校的学生的学习笔记也整合进相应社区；" style="rounded=0;whiteSpace=wrap;html=1;fillColor=#fff2cc;strokeColor=#d6b656;fontSize=40;" vertex="1" parent="1">
          <mxGeometry x="1285" y="310" width="510" height="140" as="geometry" />
        </mxCell>
        <mxCell id="nVnGu1UQP7cNqkmfe-Jb-36" style="edgeStyle=orthogonalEdgeStyle;rounded=0;orthogonalLoop=1;jettySize=auto;html=1;fontSize=54;" edge="1" parent="1" source="nVnGu1UQP7cNqkmfe-Jb-29" target="nVnGu1UQP7cNqkmfe-Jb-31">
          <mxGeometry relative="1" as="geometry" />
        </mxCell>
        <mxCell id="nVnGu1UQP7cNqkmfe-Jb-37" style="edgeStyle=orthogonalEdgeStyle;rounded=0;orthogonalLoop=1;jettySize=auto;html=1;entryX=0;entryY=0.5;entryDx=0;entryDy=0;fontSize=54;" edge="1" parent="1" source="nVnGu1UQP7cNqkmfe-Jb-29" target="nVnGu1UQP7cNqkmfe-Jb-32">
          <mxGeometry relative="1" as="geometry" />
        </mxCell>
        <mxCell id="nVnGu1UQP7cNqkmfe-Jb-29" value="线上" style="rounded=0;whiteSpace=wrap;html=1;fillColor=#fff2cc;strokeColor=#d6b656;fontSize=40;" vertex="1" parent="1">
          <mxGeometry x="1050" y="640" width="280" height="90" as="geometry" />
        </mxCell>
        <mxCell id="nVnGu1UQP7cNqkmfe-Jb-38" style="edgeStyle=orthogonalEdgeStyle;rounded=0;orthogonalLoop=1;jettySize=auto;html=1;entryX=0;entryY=0.5;entryDx=0;entryDy=0;fontSize=54;" edge="1" parent="1" source="nVnGu1UQP7cNqkmfe-Jb-30" target="nVnGu1UQP7cNqkmfe-Jb-34">
          <mxGeometry relative="1" as="geometry" />
        </mxCell>
        <mxCell id="nVnGu1UQP7cNqkmfe-Jb-30" value="线下" style="rounded=0;whiteSpace=wrap;html=1;fillColor=#fff2cc;strokeColor=#d6b656;fontSize=40;" vertex="1" parent="1">
          <mxGeometry x="1075" y="1015" width="210" height="90" as="geometry" />
        </mxCell>
        <mxCell id="nVnGu1UQP7cNqkmfe-Jb-31" value="直播&lt;br&gt;一对一" style="rounded=0;whiteSpace=wrap;html=1;fillColor=#fff2cc;strokeColor=#d6b656;fontSize=40;" vertex="1" parent="1">
          <mxGeometry x="1490" y="510" width="280" height="230" as="geometry" />
        </mxCell>
        <mxCell id="nVnGu1UQP7cNqkmfe-Jb-32" value="录播" style="rounded=0;whiteSpace=wrap;html=1;fillColor=#fff2cc;strokeColor=#d6b656;fontSize=40;" vertex="1" parent="1">
          <mxGeometry x="1490" y="810" width="280" height="90" as="geometry" />
        </mxCell>
        <mxCell id="nVnGu1UQP7cNqkmfe-Jb-33" value="视内容决定直播或录播" style="text;html=1;strokeColor=none;fillColor=none;align=center;verticalAlign=middle;whiteSpace=wrap;rounded=0;fontSize=54;" vertex="1" parent="1">
          <mxGeometry x="1810" y="535" width="260" height="300" as="geometry" />
        </mxCell>
        <mxCell id="nVnGu1UQP7cNqkmfe-Jb-34" value="公益&lt;br&gt;e.g.偏远地区支教活动、义工活动" style="rounded=0;whiteSpace=wrap;html=1;fillColor=#fff2cc;strokeColor=#d6b656;fontSize=40;" vertex="1" parent="1">
          <mxGeometry x="1420" y="990" width="460" height="140" as="geometry" />
        </mxCell>
        <mxCell id="nVnGu1UQP7cNqkmfe-Jb-48" style="edgeStyle=orthogonalEdgeStyle;rounded=0;orthogonalLoop=1;jettySize=auto;html=1;entryX=0;entryY=0.5;entryDx=0;entryDy=0;fontSize=54;" edge="1" parent="1" source="nVnGu1UQP7cNqkmfe-Jb-45" target="nVnGu1UQP7cNqkmfe-Jb-46">
          <mxGeometry relative="1" as="geometry" />
        </mxCell>
        <mxCell id="nVnGu1UQP7cNqkmfe-Jb-49" style="edgeStyle=orthogonalEdgeStyle;rounded=0;orthogonalLoop=1;jettySize=auto;html=1;entryX=0;entryY=0.5;entryDx=0;entryDy=0;fontSize=54;" edge="1" parent="1" source="nVnGu1UQP7cNqkmfe-Jb-45" target="nVnGu1UQP7cNqkmfe-Jb-47">
          <mxGeometry relative="1" as="geometry" />
        </mxCell>
        <mxCell id="nVnGu1UQP7cNqkmfe-Jb-45" value="如何选择“小老师”" style="rounded=0;whiteSpace=wrap;html=1;fillColor=#dae8fc;strokeColor=#6c8ebf;fontSize=40;" vertex="1" parent="1">
          <mxGeometry x="-910" y="1049" width="490" height="120" as="geometry" />
        </mxCell>
        <mxCell id="nVnGu1UQP7cNqkmfe-Jb-46" value="寻找优秀笔记进行邀请" style="rounded=0;whiteSpace=wrap;html=1;fillColor=#dae8fc;strokeColor=#6c8ebf;fontSize=40;" vertex="1" parent="1">
          <mxGeometry x="-110" y="870" width="490" height="120" as="geometry" />
        </mxCell>
        <mxCell id="nVnGu1UQP7cNqkmfe-Jb-47" value="活动报名——&amp;gt;审核" style="rounded=0;whiteSpace=wrap;html=1;fillColor=#dae8fc;strokeColor=#6c8ebf;fontSize=40;" vertex="1" parent="1">
          <mxGeometry x="-140" y="1180" width="490" height="120" as="geometry" />
        </mxCell>
      </root>
    </mxGraphModel>
  </diagram>
</mxfile>
